<svg width="28" height="28" viewBox="0 0 28 28" fill="none" xmlns="http://www.w3.org/2000/svg">
<rect x="2" y="2" width="24" height="24" rx="12" fill="#1E2328" fill-opacity="0.95" stroke="black" stroke-opacity="0.6" stroke-width="4"/>
<rect x="2" y="2" width="24" height="24" rx="12" stroke="url(#paint0_linear_269_10403)" stroke-width="2"/>
<path d="M18 14.5C18.2761 14.5 18.5 14.2761 18.5 14C18.5 13.7239 18.2761 13.5 18 13.5L18 14L18 14.5ZM10.6464 13.6464C10.4512 13.8417 10.4512 14.1583 10.6464 14.3536L13.8284 17.5355C14.0237 17.7308 14.3403 17.7308 14.5355 17.5355C14.7308 17.3403 14.7308 17.0237 14.5355 16.8284L11.7071 14L14.5355 11.1716C14.7308 10.9763 14.7308 10.6597 14.5355 10.4645C14.3403 10.2692 14.0237 10.2692 13.8284 10.4645L10.6464 13.6464ZM18 14L18 13.5L11 13.5L11 14L11 14.5L18 14.5L18 14Z" fill="#CDBE91"/>
<defs>
<linearGradient id="paint0_linear_269_10403" x1="14" y1="2" x2="14" y2="26" gradientUnits="userSpaceOnUse">
<stop stop-color="#C8AA6E"/>
<stop offset="1" stop-color="#7A5C29"/>
</linearGradient>
</defs>
</svg>
